<svg width="136" height="136" viewBox="0 0 136 136" fill="none" xmlns="http://www.w3.org/2000/svg">
<path d="M12.0809 64.1014C12.1415 61.6241 12.6061 59.1593 13.5018 56.8144C15.5208 51.6664 18.0117 46.7998 21.2981 42.3618C25.1745 37.0876 29.9825 32.7802 35.7628 29.6011C43.1426 25.5022 50.8682 24.8083 58.8973 26.9004C61.969 27.7268 64.7326 29.1464 67.0539 31.3076C72.1283 35.9789 73.5298 41.5216 70.3281 47.4267C69.3904 49.1524 68.345 50.9053 67.3399 52.5908C66.2809 54.2899 65.5454 56.1362 64.8774 58.0228C63.7021 61.5261 64.1418 64.8501 65.8334 68.1439C67.8362 71.9887 70.8731 74.9423 74.0845 77.68C75.5282 78.8608 77.012 79.9742 78.4557 81.155C82.2064 84.2144 84.412 88.4087 85.2185 92.9568C87.1451 103.52 81.275 113.363 69.0564 115.307C64.2658 116.061 59.5792 115.414 55.0651 113.864C43.005 109.642 32.352 103.061 22.9189 94.5107C22.5546 94.202 22.2305 93.8259 21.8526 93.4635C17.6546 89.3149 15.016 84.3139 13.3288 77.6411C12.6454 73.8062 11.9997 68.9884 12.0809 64.1014Z" fill="#20BEFF"/>
<path fill-rule="evenodd" clip-rule="evenodd" d="M123.053 51.9974L122.249 50.6741C116.611 42.0004 107.609 38.6006 100.242 40.4244C90.795 42.6956 86.6459 46.8763 84.0479 52.8568C84.0213 52.9321 83.9938 53.0042 83.9669 53.0748C83.9017 53.2462 83.84 53.4085 83.8013 53.5846C82.4442 58.8991 82.8539 64.08 85.3154 69.0161C85.88 70.1651 86.7478 71.12 87.7073 71.9735C93.8709 77.6175 101.122 80.2857 109.487 79.619C113.931 79.2389 117.682 77.3511 120.627 73.9837C120.76 73.813 120.895 73.6516 121.031 73.4902C121.166 73.3287 121.301 73.1673 121.434 72.9967C123.609 70.294 125.34 67.39 125.533 63.8182C125.771 59.648 125.235 55.6732 123.053 51.9974ZM86.5593 59.2283C86.4265 57.7744 86.5606 56.2921 87.1645 54.9651C89.3696 50.0625 92.6547 46.3351 98.3765 45.1232C100.446 44.4826 102.82 44.4302 105.232 44.525C114.483 44.8867 122.314 54.1804 121.289 63.4427C121.109 65.0539 120.718 66.6013 119.819 68.0027C119.233 68.9339 118.646 69.8651 117.968 70.7414C115.803 73.6373 112.844 75.2468 109.292 75.5969C101.452 76.3267 94.8913 73.7579 89.7943 67.6875C87.7259 65.2355 86.7977 62.3387 86.5593 59.2283Z" fill="#20BEFF"/>
<path d="M49.8605 50.712C48.3265 50.9854 47.0925 52.6715 47.3257 54.2729C47.5452 55.8205 49.0291 56.9339 50.5093 56.6741C52.0568 56.4546 52.955 55.0252 52.7082 53.37C52.407 51.4995 51.3407 50.4523 49.8605 50.712Z" fill="#202124"/>
<path d="M47.9578 79.191C46.2358 79.6264 45.3246 81.2309 45.8541 82.8719C46.2617 84.2574 47.6373 85.1692 48.9424 84.8964C50.6378 84.5822 51.6962 82.6543 51.1933 80.8921C50.7319 79.5201 49.4107 78.8236 47.9578 79.191Z" fill="#202124"/>
<path d="M46.7787 61.1677C45.2985 61.4274 44.2661 63.0053 44.5797 64.4718C44.8797 65.8846 46.525 66.9572 47.9241 66.6034C49.283 66.317 50.1948 64.9414 49.8948 63.5287C49.6078 61.9409 48.2588 60.9079 46.7787 61.1677Z" fill="#202124"/>
<path d="M41.6081 85.7776C41.1733 84.2845 39.677 83.575 38.0763 84.037C36.5293 84.4854 35.766 85.9953 36.2546 87.4748C36.7432 88.9543 38.2531 89.7177 39.8 89.2692C41.2932 88.8344 42.0565 87.3246 41.6081 85.7776Z" fill="#202124"/>
<path d="M48.8652 91.1568C47.4122 91.5242 46.4207 93.2635 46.8821 94.6354C47.3163 95.8997 48.8533 96.7706 50.1448 96.444C51.4902 96.1039 52.2133 94.6615 51.8459 93.2085C51.4649 91.7017 50.2241 90.8704 48.8652 91.1568Z" fill="#202124"/>
<path d="M39.4018 56.2201C38.0428 56.5064 36.93 58.2191 37.2838 59.6183C37.6104 60.9098 39.1072 61.8481 40.3987 61.5215C41.7441 61.1814 42.508 59.9004 42.302 58.4066C42.0423 56.9265 40.7743 55.9875 39.4018 56.2201Z" fill="#202124"/>
<path d="M41.0054 46.9397C39.4585 47.3881 38.6952 48.898 39.1572 50.4988C39.5784 51.9381 41.0208 52.6612 42.4063 52.2536C43.7782 51.7922 44.6758 50.1339 44.2948 48.6272C43.9546 47.2818 42.4448 46.5185 41.0054 46.9397Z" fill="#202124"/>
<path d="M57.8278 84.9399C56.4689 85.2263 55.5033 86.6155 55.7359 87.988C56.0092 89.522 57.4931 90.6354 58.9596 90.3218C60.4262 90.0083 61.3911 88.3902 60.9563 86.897C60.67 85.5381 59.2405 84.64 57.8278 84.9399Z" fill="#202124"/>
<path d="M35.5622 50.3204C35.2622 48.9076 33.954 48.0361 32.4603 48.242C30.8187 48.5426 29.8531 49.9318 30.2477 51.4924C30.6015 52.8915 31.9233 53.8169 33.2958 53.5844C34.8434 53.3648 35.8758 51.7869 35.5622 50.3204Z" fill="#202124"/>
<path d="M39.4509 69.5476C38.1996 69.8067 37.1939 71.2633 37.4128 72.5821C37.6317 73.9008 39.1422 74.893 40.4473 74.6202C41.8062 74.3338 42.7316 73.0121 42.4316 71.5993C42.1317 70.1866 40.7561 69.2748 39.4509 69.5476Z" fill="#202124"/>
<path d="M31.5423 72.2341C30.291 72.4932 29.2852 73.9499 29.5041 75.2686C29.7231 76.5873 31.2335 77.5795 32.5386 77.3067C33.8976 77.0204 34.8229 75.6986 34.5229 74.2858C34.2366 72.9269 32.8474 71.9613 31.5423 72.2341Z" fill="#202124"/>
<path d="M31.0174 62.2331C29.766 62.4923 28.7603 63.9489 28.9792 65.2676C29.1982 66.5863 30.7086 67.5785 32.0137 67.3058C33.3726 67.0194 34.298 65.6976 33.998 64.2849C33.7655 62.9123 32.3899 62.0006 31.0174 62.2331Z" fill="#202124"/>
<path d="M55.91 72.5999C55.5828 71.0795 54.4763 70.0998 53.0902 70.2785C51.5964 70.4844 50.5504 72.0085 50.8776 73.5288C51.2178 74.8742 52.607 75.8397 53.9121 75.567C55.3923 75.3072 56.2236 74.0665 55.91 72.5999Z" fill="#202124"/>
<path d="M59.9003 94.7216C58.5414 95.008 57.6161 96.3298 57.8486 97.7023C58.0675 99.0211 59.6454 100.053 60.8831 99.7405C62.067 99.4411 62.8847 98.1465 62.693 96.9354C62.487 95.4417 61.2593 94.4353 59.9003 94.7216Z" fill="#202124"/>
<path d="M65.662 89.6576C66.0559 90.9893 67.6066 91.914 68.8041 91.6685C69.8803 91.3964 70.6573 89.9403 70.3307 88.6488C69.8959 87.1557 68.6013 86.3379 67.2696 86.7319C66.0319 87.0449 65.2952 88.4335 65.662 89.6576Z" fill="#202124"/>
</svg>
